<svg width="319" height="392" viewBox="0 0 319 392" fill="none" xmlns="http://www.w3.org/2000/svg">
<path fill-rule="evenodd" clip-rule="evenodd" d="M215.308 348.881L215.3 348.878C197.124 357.255 176.795 361.664 155.418 360.919C139.615 360.368 124.565 357.061 110.693 351.488L110.684 351.492C60.6205 331.365 26.0894 281.594 28.082 224.635C28.8541 202.564 35.0518 181.958 45.3222 163.999C55.01 161.276 65.2719 159.964 75.8681 160.334C83.0534 160.584 90.042 161.614 96.7475 163.301C96.9439 163.351 97.14 163.401 97.3359 163.451C97.3488 163.249 97.3621 163.048 97.3757 162.846C98.6907 143.326 103.004 124.701 109.825 107.348C121.867 76.7323 141.769 50.1555 166.972 30C166.972 30 243.033 119.292 262.161 145.789C280.274 170.843 293.092 200.524 291.927 233.827C290.128 285.229 259.075 328.686 215.308 348.881Z" fill="white"/>
</svg>
