<svg width="383" height="392" viewBox="0 0 383 392" fill="none" xmlns="http://www.w3.org/2000/svg">
<path d="M360.613 164.141H195.352V232.68H290.478C281.61 276.222 244.527 301.219 195.352 301.219C137.31 301.219 90.5533 254.451 90.5533 196.395C90.5533 138.338 137.31 91.5705 195.352 91.5705C220.343 91.5705 242.915 100.44 260.65 114.954L312.244 63.3486C280.804 35.9331 240.497 19 195.352 19C97.0025 19 18 98.0212 18 196.395C18 294.768 97.0025 373.789 195.352 373.789C284.029 373.789 364.643 309.282 364.643 196.395C364.643 185.912 363.031 174.623 360.613 164.141Z" fill="white"/>
</svg>
