<svg width="320" height="178" xmlns="http://www.w3.org/2000/svg" version="1.1">

 <g>
  <title>Layer 1</title>
  <path id="svg_2" fill="#ffffff" d="m7,9c5.99003,-0.72066 11.06873,0.99422 16.6875,2.8125c1.77663,0.55696 3.55398,1.11166 5.33203,1.66406c0.85417,0.26587 1.70833,0.53174 2.58838,0.80567c3.06341,0.91921 6.15295,1.67851 9.26709,2.40527c6.1333,1.50098 10.96775,3.23229 15.06087,8.31394c2.25692,4.23876 1.73545,9.0813 1.67936,13.76785c0.00555,1.17956 0.0111,2.35913 0.01682,3.57444c0.00977,3.22354 -0.00277,6.44602 -0.02629,9.66946c-0.02017,3.38131 -0.01422,6.76258 -0.01189,10.14393c-0.00005,5.67848 -0.01977,11.35663 -0.05188,17.03502c-0.03687,6.55298 -0.04568,13.10552 -0.0387,19.65859c0.00632,6.31758 -0.00448,12.63501 -0.02397,18.95256c-0.00814,2.68205 -0.01088,5.36402 -0.0093,8.04609c-0.0018,3.75089 -0.02321,7.50116 -0.0501,11.25194c0.00293,1.1062 0.00586,2.21239 0.00888,3.35211c-0.07425,6.72153 -0.66207,11.78644 -4.74521,17.33563c-7.91437,5.69248 -19.83998,7.38594 -29.19311,9.59912c-1.24246,0.29512 -1.24246,0.29512 -2.51001,0.5962c-0.74355,0.17241 -1.4871,0.34482 -2.25318,0.52246c-1.74224,0.34617 -1.74224,0.34617 -2.72729,1.49316c-1.51928,0.0718 -3.04167,0.08392 -4.5625,0.0625c-0.82629,-0.00902 -1.65258,-0.01805 -2.50391,-0.02734c-0.63808,-0.01161 -1.27617,-0.02321 -1.93359,-0.03516c-2.13731,-3.48744 -2.25126,-6.25614 -2.25397,-10.30727c-0.00846,-1.94541 -0.00846,-1.94541 -0.01709,-3.93013c0.00389,-1.43527 0.00799,-2.87054 0.01227,-4.30581c-0.00271,-1.51295 -0.00627,-3.02589 -0.01062,-4.53884c-0.00912,-4.1073 -0.00558,-8.21451 0.00076,-12.32181c0.00506,-4.29608 0.00037,-8.59216 -0.00277,-12.88824c-0.00364,-7.2136 0.00115,-14.42716 0.01068,-21.64076c0.01089,-8.34453 0.00735,-16.68895 -0.00365,-25.03347c-0.00907,-7.16101 -0.01036,-14.322 -0.00513,-21.48301c0.00312,-4.27854 0.00353,-8.55703 -0.00307,-12.83556c-0.00577,-4.02109 -0.00179,-8.04205 0.00979,-12.06313c0.00265,-1.47745 0.00188,-2.95492 -0.00253,-4.43237c-0.00544,-2.0131 0.00259,-4.02623 0.01136,-6.03932c0.00076,-1.12769 0.00151,-2.25537 0.00229,-3.41723c0.25168,-2.76305 0.25168,-2.76305 2.25168,-5.76305z"/>
  <path id="svg_3" fill="#ffffff" d="m138.74341,28.72534c0.96142,-0.00953 1.92285,-0.01906 2.91341,-0.02888c1.03751,0.00091 2.07501,0.00182 3.14396,0.00276c1.06913,-0.00429 2.13827,-0.00857 3.23979,-0.01299c2.26374,-0.00574 4.52748,-0.00624 6.79122,-0.00191c3.45678,0.00316 6.91271,-0.02026 10.36938,-0.04565c2.19987,-0.00227 4.39974,-0.00298 6.59961,-0.00195c1.54716,-0.01382 1.54716,-0.01382 3.12557,-0.02791c6.49755,0.04168 11.26788,0.58542 16.07365,5.39119c0.25448,1.93442 0.25448,1.93442 0.2607,4.34492c0.00708,0.91267 0.01417,1.82534 0.02147,2.76566c-0.00248,1.00418 -0.00496,2.00837 -0.00751,3.04298c0.00511,1.0554 0.01022,2.1108 0.01549,3.19818c0.01395,3.50391 0.01293,7.00761 0.01063,10.51154c0.00389,2.42897 0.00822,4.85794 0.01299,7.28691c0.00747,5.09864 0.00716,10.19721 0.00191,15.29585c-0.00579,6.53725 0.01111,13.07422 0.03434,19.61142c0.01473,5.01941 0.01561,10.03876 0.01249,15.05819c0.00051,2.41016 0.00577,4.82033 0.01581,7.23047c0.01233,3.3709 0.0056,6.74124 -0.006,10.11213c0.00764,0.99811 0.01528,1.99622 0.02316,3.02458c-0.06518,8.55914 -0.06518,8.55914 -3.39548,12.51717c-2.52217,1.26109 -4.2974,1.14752 -7.1206,1.177c-1.06806,0.01284 -2.13612,0.02567 -3.23655,0.03889c-1.15831,0.00739 -2.31662,0.01478 -3.51004,0.02239c-1.18627,0.00807 -2.37254,0.01614 -3.59475,0.02446c-2.51349,0.01385 -5.02699,0.02457 -7.5405,0.03242c-3.84981,0.01724 -7.69876,0.06112 -11.54834,0.10523c-2.4388,0.01012 -4.8776,0.01864 -7.31641,0.02539c-1.15426,0.01751 -2.30853,0.03502 -3.49777,0.05305c-1.07436,-0.00292 -2.14872,-0.00585 -3.25564,-0.00886c-0.94439,0.00587 -1.88878,0.01173 -2.86179,0.01778c-3.28758,-0.63692 -4.45166,-1.905 -6.51761,-4.48775c-0.92397,-2.77191 -1.13116,-4.44508 -1.14717,-7.3066c-0.00715,-0.87894 -0.01431,-1.75788 -0.02168,-2.66345c-0.00269,-0.96161 -0.00538,-1.92323 -0.00815,-2.91398c-0.00657,-1.01493 -0.01314,-2.02986 -0.01991,-3.07554c-0.01974,-3.36374 -0.0314,-6.72743 -0.04137,-10.09121c-0.00407,-1.14818 -0.00815,-2.29636 -0.01235,-3.47933c-0.02086,-6.07582 -0.03516,-12.15161 -0.04453,-18.22746c-0.01108,-6.27822 -0.04548,-12.55609 -0.08518,-18.83418c-0.02613,-4.82557 -0.03451,-9.65106 -0.03811,-14.47669c-0.00487,-2.31446 -0.01651,-4.62892 -0.03503,-6.94331c-0.02432,-3.23896 -0.02344,-6.47701 -0.01649,-9.71603c-0.01281,-0.95555 -0.02562,-1.91109 -0.03882,-2.89559c0.04399,-5.62161 0.67263,-8.96302 4.50879,-13.37663c3.20581,-2.1372 4.05602,-2.25457 7.74341,-2.27466z"/>
  <path id="svg_4" fill="#ffffff" d="m312,9c1.82463,1.82463 1.12619,4.69978 1.12698,7.14978c0.00156,0.64943 0.00312,1.29887 0.00473,1.96798c0.00401,2.19189 0.00082,4.38371 -0.00232,6.5756c0.00136,1.56501 0.00314,3.13001 0.00531,4.69502c0.00458,4.26228 0.00279,8.52453 -0.00037,12.78681c-0.00253,4.45051 -0.00019,8.90103 0.00138,13.35154c0.00182,7.47531 -0.00058,14.9506 -0.00534,22.42591c-0.00544,8.65519 -0.00368,17.31036 0.00183,25.96555c0.00453,7.41739 0.00518,14.83476 0.00256,22.25215c-0.00156,4.43612 -0.00176,8.87223 0.00154,13.30834c0.00287,4.16957 0.0009,8.33911 -0.0049,12.50868c-0.00133,1.53473 -0.00093,3.06947 0.00126,4.6042c0.00271,2.08626 -0.00067,4.17241 -0.00568,6.25866c-0.00037,1.1703 -0.00075,2.3406 -0.00114,3.54636c-0.12584,2.60342 -0.12584,2.60342 -1.12584,3.60342c-7.75,-0.00894 -14.73167,-1.87651 -22,-4.375c-1.83255,-0.61432 -3.66589,-1.2263 -5.5,-1.83594c-0.89735,-0.30132 -1.7947,-0.60263 -2.71924,-0.91308c-3.7769,-1.18978 -7.6048,-2.13677 -11.45605,-3.0542c-3.82863,-1.35341 -5.20063,-3.42325 -7.32471,-6.82178c-0.97892,-2.93677 -1.13232,-4.84678 -1.14717,-7.90729c-0.00716,-1.01212 -0.01431,-2.02424 -0.02168,-3.06703c-0.00269,-1.10966 -0.00538,-2.21931 -0.00815,-3.36259c-0.00657,-1.16938 -0.01314,-2.33876 -0.01991,-3.54357c-0.01975,-3.87837 -0.03141,-7.75674 -0.04137,-11.63514c-0.00405,-1.33683 -0.00817,-2.67365 -0.01235,-4.01046c-0.01905,-6.28176 -0.03328,-12.56351 -0.04161,-18.84529c-0.00977,-7.24296 -0.03608,-14.48562 -0.0765,-21.72847c-0.0302,-5.60353 -0.04498,-11.20696 -0.04828,-16.81056c-0.00235,-3.34437 -0.01324,-6.68815 -0.03647,-10.03248c-0.02432,-3.73446 -0.02343,-7.46812 -0.01648,-11.20263c-0.01281,-1.10156 -0.02562,-2.20312 -0.03882,-3.33806c0.04346,-6.4055 0.69163,-10.30764 4.50879,-15.51643c5.28849,-4.78926 12.18852,-5.92743 18.9375,-7.625c2.30085,-0.59609 4.60163,-1.19244 6.90234,-1.78906c1.61214,-0.41077 1.61214,-0.41077 3.25684,-0.82984c2.34227,-0.60999 4.6598,-1.25994 6.97754,-1.95532c3.4174,-0.93534 6.39904,-1.01238 9.92578,-0.80078z"/>
  <path id="svg_5" fill="#ffffff" d="m253.12866,25.70858c2.2325,2.73365 2.37343,3.93142 2.37928,7.41508c0.01128,1.03466 0.02256,2.06932 0.03418,3.13533c-0.0081,1.12947 -0.01619,2.25895 -0.02454,3.42265c0.00701,1.19385 0.01402,2.3877 0.02124,3.61772c0.01459,3.27081 0.01117,6.54097 -0.00151,9.81177c-0.01014,3.42411 -0.00074,6.84818 0.00554,10.27229c0.00728,5.75004 -0.00231,11.49987 -0.02136,17.24988c-0.02177,6.64621 -0.01472,13.29192 0.00731,19.93812c0.01815,5.70799 0.02071,11.41584 0.01024,17.12385c-0.00623,3.40841 -0.00707,6.81658 0.00615,10.22497c0.01013,3.79971 -0.0053,7.59848 -0.02761,11.39812c0.0081,1.12947 0.0162,2.25895 0.02454,3.42265c-0.01128,1.03466 -0.02256,2.06932 -0.03418,3.13533c-0.00151,0.89816 -0.00302,1.79633 -0.00457,2.72171c-0.6704,3.19899 -1.95824,4.41218 -4.50336,6.40195c-3.19532,0.24219 -3.19532,0.24219 -7.125,-0.125c-1.51038,-0.13193 -3.0208,-0.26341 -4.53125,-0.39453c-1.25684,-0.11916 -1.25684,-0.11916 -2.53907,-0.24072c-3.15171,-0.26941 -6.3026,-0.45156 -9.46093,-0.62647c-2.32295,-0.14146 -4.64587,-0.28339 -6.96875,-0.42578c-1.11392,-0.05752 -2.22783,-0.11505 -3.37549,-0.17432c-6.37927,-0.43545 -10.91332,-0.99741 -15.99951,-5.01318c-3.53127,-5.32612 -3.43296,-10.15078 -3.40406,-16.31641c-0.00686,-1.02511 -0.01372,-2.05023 -0.02079,-3.10641c-0.01827,-3.38004 -0.01444,-6.75961 -0.00875,-10.13968c-0.00456,-2.3536 -0.00987,-4.7072 -0.01588,-7.06079c-0.00893,-4.92934 -0.00651,-9.85851 0.00343,-14.78784c0.0115,-6.31518 -0.00873,-12.6298 -0.03792,-18.9449c-0.01835,-4.85905 -0.01807,-9.71797 -0.01236,-14.57704c0.00015,-2.3284 -0.0059,-4.65681 -0.01829,-6.98517c-0.01488,-3.25548 -0.00425,-6.50991 0.01291,-9.76535c-0.00967,-0.96018 -0.01934,-1.92036 -0.0293,-2.90964c0.06208,-5.62726 0.6909,-8.98947 4.53101,-13.40677c5.03852,-3.35902 11.07908,-3.29338 17,-4c0.7607,-0.09313 1.52141,-0.18627 2.30517,-0.28223c27.67266,-3.34087 27.67266,-3.34087 31.82348,-0.00919z"/>
  <path id="svg_6" fill="#ffffff" d="m91.09766,25.4375c2.45059,0.47495 4.79262,0.77299 7.27344,1c0.79116,0.07364 1.58232,0.14728 2.39746,0.22314c1.57373,0.13946 3.14867,0.26613 4.72461,0.37793c5.44798,0.49582 8.97031,1.86647 13.50683,4.96143c1.17958,2.35914 1.13581,3.78936 1.1539,6.42085c0.0086,0.9295 0.0172,1.85899 0.02607,2.81665c0.00426,1.02289 0.00852,2.04578 0.0129,3.09966c0.01227,1.61236 0.01227,1.61236 0.02479,3.25729c0.02487,3.56877 0.04137,7.1375 0.05578,10.70633c0.00532,1.21654 0.01065,2.43308 0.01613,3.68648c0.02674,6.43776 0.04612,12.87549 0.06053,19.31328c0.01543,6.65845 0.06145,13.31634 0.11237,19.97462c0.03361,5.11205 0.0452,10.22398 0.05086,15.33613c0.00673,2.45485 0.02199,4.9097 0.04589,7.36444c0.03152,3.43339 0.03171,6.86543 0.02428,10.29893c0.01641,1.01681 0.03281,2.03363 0.04971,3.08125c-0.04158,4.68876 -0.07571,6.90754 -2.97387,10.73654c-6.07483,4.3575 -13.31073,4.41688 -20.53434,4.97005c-1.5117,0.12025 -1.5117,0.12025 -3.05395,0.24292c-2.04603,0.16025 -4.09234,0.31694 -6.13892,0.46997c-2.69434,0.20639 -5.38508,0.43839 -8.07666,0.67774c-1.51422,0.12105 -3.02854,0.24092 -4.54297,0.35937c-1.03133,0.09777 -1.03133,0.09777 -2.08349,0.19751c-2.89573,0.20202 -4.8295,0.20922 -7.40398,-1.20354c-1.82503,-1.80647 -1.82503,-1.80647 -2.3256,-4.10379c-0.00021,-0.90775 -0.00042,-1.81551 -0.00063,-2.75078c-0.00984,-1.04314 -0.01967,-2.08628 -0.0298,-3.16104c0.00967,-1.14399 0.01933,-2.28798 0.02929,-3.46664c-0.0054,-1.20506 -0.0108,-2.41013 -0.01637,-3.6517c-0.01037,-3.30607 -0.00277,-6.61114 0.01371,-9.91711c0.01384,-3.45795 0.00739,-6.91586 0.00387,-10.37382c-0.0027,-5.80729 0.01078,-11.61438 0.03395,-17.42163c0.02661,-6.71601 0.02836,-13.43168 0.01661,-20.14772c-0.01077,-6.458 -0.00459,-12.91587 0.00956,-19.37385c0.00576,-2.74957 0.00567,-5.49904 0.00093,-8.2486c-0.00565,-3.83814 0.01354,-7.67593 0.0354,-11.51401c-0.0045,-1.14399 -0.009,-2.28798 -0.01364,-3.46664c0.0099,-1.04315 0.01981,-2.08629 0.03001,-3.16104c0.00243,-0.90776 0.00486,-1.81552 0.00737,-2.75078c0.45938,-2.77493 1.15298,-3.62744 3.38031,-5.29732c7.54563,-2.51521 16.46672,-1.39088 24.09766,0.4375z"/>
 </g>
</svg>